<mxfile host="app.diagrams.net" modified="2022-02-21T07:00:21.674Z" agent="5.0 (Macintosh; Intel Mac OS X 10_15_7) AppleWebKit/537.36 (KHTML, like Gecko) Chrome/98.0.4758.80 Safari/537.36" etag="8tF5NbY3WPXDwP4yaQmA" version="16.5.6" type="github">
  <diagram id="qV7zFRWkkBN5ARHCOPHu" name="Page-1">
    <mxGraphModel dx="624" dy="266" grid="1" gridSize="10" guides="1" tooltips="1" connect="1" arrows="1" fold="1" page="1" pageScale="1" pageWidth="827" pageHeight="1169" math="0" shadow="0">
      <root>
        <mxCell id="0" />
        <mxCell id="1" parent="0" />
        <mxCell id="xSuGVzNFY-BYhUCp_CXv-1" value="" style="endArrow=none;html=1;rounded=0;" parent="1" edge="1">
          <mxGeometry width="50" height="50" relative="1" as="geometry">
            <mxPoint x="40" y="920" as="sourcePoint" />
            <mxPoint x="810" y="920" as="targetPoint" />
          </mxGeometry>
        </mxCell>
        <mxCell id="xSuGVzNFY-BYhUCp_CXv-2" value="cpu" style="rounded=0;whiteSpace=wrap;html=1;" parent="1" vertex="1">
          <mxGeometry x="210" y="950" width="60" height="30" as="geometry" />
        </mxCell>
        <mxCell id="xSuGVzNFY-BYhUCp_CXv-3" value="mem" style="rounded=0;whiteSpace=wrap;html=1;" parent="1" vertex="1">
          <mxGeometry x="300" y="950" width="60" height="30" as="geometry" />
        </mxCell>
        <mxCell id="xSuGVzNFY-BYhUCp_CXv-4" value="netcard" style="rounded=0;whiteSpace=wrap;html=1;" parent="1" vertex="1">
          <mxGeometry x="384" y="950" width="60" height="30" as="geometry" />
        </mxCell>
        <mxCell id="xSuGVzNFY-BYhUCp_CXv-5" value="disk" style="rounded=0;whiteSpace=wrap;html=1;" parent="1" vertex="1">
          <mxGeometry x="470" y="950" width="60" height="30" as="geometry" />
        </mxCell>
        <mxCell id="xSuGVzNFY-BYhUCp_CXv-6" value="fireware" style="rounded=0;whiteSpace=wrap;html=1;" parent="1" vertex="1">
          <mxGeometry x="560" y="950" width="60" height="30" as="geometry" />
        </mxCell>
        <mxCell id="xSuGVzNFY-BYhUCp_CXv-9" value="dpu" style="rounded=0;whiteSpace=wrap;html=1;" parent="1" vertex="1">
          <mxGeometry x="640" y="950" width="60" height="30" as="geometry" />
        </mxCell>
        <mxCell id="xSuGVzNFY-BYhUCp_CXv-10" value="..." style="rounded=0;whiteSpace=wrap;html=1;" parent="1" vertex="1">
          <mxGeometry x="720" y="950" width="60" height="30" as="geometry" />
        </mxCell>
        <mxCell id="xSuGVzNFY-BYhUCp_CXv-11" value="&lt;font style=&quot;font-size: 24px&quot;&gt;硬件/固件层&lt;/font&gt;" style="text;html=1;strokeColor=none;fillColor=none;align=center;verticalAlign=middle;whiteSpace=wrap;rounded=0;" parent="1" vertex="1">
          <mxGeometry y="950" width="160" height="30" as="geometry" />
        </mxCell>
        <mxCell id="xSuGVzNFY-BYhUCp_CXv-13" value="" style="rounded=1;whiteSpace=wrap;html=1;fontSize=24;" parent="1" vertex="1">
          <mxGeometry x="130" y="850" width="440" height="60" as="geometry" />
        </mxCell>
        <mxCell id="xSuGVzNFY-BYhUCp_CXv-14" value="&lt;font style=&quot;font-size: 24px&quot;&gt;内核层&lt;/font&gt;" style="text;html=1;strokeColor=none;fillColor=none;align=center;verticalAlign=middle;whiteSpace=wrap;rounded=0;" parent="1" vertex="1">
          <mxGeometry y="865" width="160" height="30" as="geometry" />
        </mxCell>
        <mxCell id="xSuGVzNFY-BYhUCp_CXv-15" value="" style="endArrow=none;html=1;rounded=0;" parent="1" edge="1">
          <mxGeometry width="50" height="50" relative="1" as="geometry">
            <mxPoint x="40" y="824" as="sourcePoint" />
            <mxPoint x="570" y="824" as="targetPoint" />
          </mxGeometry>
        </mxCell>
        <mxCell id="xSuGVzNFY-BYhUCp_CXv-16" value="&lt;font style=&quot;font-size: 24px&quot;&gt;基础系统层&lt;/font&gt;" style="text;html=1;strokeColor=none;fillColor=none;align=center;verticalAlign=middle;whiteSpace=wrap;rounded=0;" parent="1" vertex="1">
          <mxGeometry y="777" width="160" height="30" as="geometry" />
        </mxCell>
        <mxCell id="xSuGVzNFY-BYhUCp_CXv-17" value="系统服务" style="rounded=0;whiteSpace=wrap;html=1;" parent="1" vertex="1">
          <mxGeometry x="150" y="777" width="60" height="30" as="geometry" />
        </mxCell>
        <mxCell id="xSuGVzNFY-BYhUCp_CXv-18" value="系统库" style="rounded=0;whiteSpace=wrap;html=1;" parent="1" vertex="1">
          <mxGeometry x="240" y="777" width="60" height="30" as="geometry" />
        </mxCell>
        <mxCell id="xSuGVzNFY-BYhUCp_CXv-19" value="" style="endArrow=none;html=1;rounded=0;" parent="1" edge="1">
          <mxGeometry width="50" height="50" relative="1" as="geometry">
            <mxPoint x="40" y="720" as="sourcePoint" />
            <mxPoint x="570" y="720" as="targetPoint" />
          </mxGeometry>
        </mxCell>
        <mxCell id="xSuGVzNFY-BYhUCp_CXv-20" value="&lt;font style=&quot;font-size: 24px&quot;&gt;应用层&lt;/font&gt;" style="text;html=1;strokeColor=none;fillColor=none;align=center;verticalAlign=middle;whiteSpace=wrap;rounded=0;" parent="1" vertex="1">
          <mxGeometry y="660" width="160" height="30" as="geometry" />
        </mxCell>
        <mxCell id="xSuGVzNFY-BYhUCp_CXv-21" value="" style="endArrow=none;html=1;rounded=0;" parent="1" edge="1">
          <mxGeometry width="50" height="50" relative="1" as="geometry">
            <mxPoint x="40" y="570" as="sourcePoint" />
            <mxPoint x="570" y="570" as="targetPoint" />
          </mxGeometry>
        </mxCell>
        <mxCell id="xSuGVzNFY-BYhUCp_CXv-22" value="&lt;font style=&quot;font-size: 24px&quot;&gt;图形层&lt;/font&gt;" style="text;html=1;strokeColor=none;fillColor=none;align=center;verticalAlign=middle;whiteSpace=wrap;rounded=0;" parent="1" vertex="1">
          <mxGeometry y="510" width="160" height="30" as="geometry" />
        </mxCell>
        <mxCell id="xSuGVzNFY-BYhUCp_CXv-24" value="" style="rounded=0;whiteSpace=wrap;html=1;fontSize=24;" parent="1" vertex="1">
          <mxGeometry x="600" y="440" width="50" height="470" as="geometry" />
        </mxCell>
        <mxCell id="xSuGVzNFY-BYhUCp_CXv-25" value="工具链" style="rounded=0;whiteSpace=wrap;html=1;fontSize=24;" parent="1" vertex="1">
          <mxGeometry x="750" y="440" width="50" height="470" as="geometry" />
        </mxCell>
        <mxCell id="xSuGVzNFY-BYhUCp_CXv-26" value="编程语言" style="rounded=0;whiteSpace=wrap;html=1;fontSize=24;" parent="1" vertex="1">
          <mxGeometry x="680" y="440" width="50" height="470" as="geometry" />
        </mxCell>
        <mxCell id="UWjC2tOayZfaTeM0xwEH-1" value="&lt;font style=&quot;font-size: 10px&quot;&gt;安装启动&lt;/font&gt;" style="rounded=0;whiteSpace=wrap;html=1;fontSize=24;" vertex="1" parent="1">
          <mxGeometry x="590" y="420" width="50" height="20" as="geometry" />
        </mxCell>
        <mxCell id="UWjC2tOayZfaTeM0xwEH-2" value="&lt;font style=&quot;font-size: 10px&quot;&gt;anaconda&amp;nbsp;&lt;/font&gt;" style="rounded=0;whiteSpace=wrap;html=1;fontSize=8;" vertex="1" parent="1">
          <mxGeometry x="550" y="450" width="30" height="20" as="geometry" />
        </mxCell>
      </root>
    </mxGraphModel>
  </diagram>
</mxfile>
